<?xml version="1.0" encoding="UTF-8"?>
<svg width="20px" height="20px" viewBox="0 0 20 20" version="1.1" xmlns="http://www.w3.org/2000/svg" xmlns:xlink="http://www.w3.org/1999/xlink">
    <!-- Generator: sketchtool 62 (101010) - https://sketch.com -->
    <title>284209CC-E63B-45C9-9963-1959FA8AE8D5</title>
    <desc>Created with sketchtool.</desc>
    <g id="Page-1" stroke="none" stroke-width="1" fill="none" fill-rule="evenodd">
        <g id="Search-Results-Page" transform="translate(-407.000000, -227.000000)" fill="#6E6E6E" fill-rule="nonzero">
            <g id="Group-3" transform="translate(-2.000000, 130.000000)">
                <g id="Staff-Search-Field" transform="translate(121.000000, 82.000000)">
                    <g id="Group" transform="translate(275.000000, 0.000000)">
                        <g id="Icons" transform="translate(13.000000, 15.000000)">
                            <path d="M16.1098531,14.6593777 L19.6995967,18.2491213 C20.1001344,18.649659 20.1001344,19.299059 19.6995967,19.6995967 C19.299059,20.1001344 18.649659,20.1001344 18.2491213,19.6995967 L14.6593777,16.1098531 C14.2588399,15.7093154 14.2588399,15.0599154 14.6593777,14.6593777 C15.0599154,14.2588399 15.7093154,14.2588399 16.1098531,14.6593777 Z M8.20512821,0 C12.7366954,0 16.4102564,3.67356103 16.4102564,8.20512821 C16.4102564,12.7366954 12.7366954,16.4102564 8.20512821,16.4102564 C3.67356103,16.4102564 0,12.7366954 0,8.20512821 C0,3.67356103 3.67356103,0 8.20512821,0 Z M8.20512821,2.05128205 C4.80645282,2.05128205 2.05128205,4.80645282 2.05128205,8.20512821 C2.05128205,11.6038036 4.80645282,14.3589744 8.20512821,14.3589744 C11.6038036,14.3589744 14.3589744,11.6038036 14.3589744,8.20512821 C14.3589744,4.80645282 11.6038036,2.05128205 8.20512821,2.05128205 Z" id="Combined-Shape"></path>
                        </g>
                    </g>
                </g>
            </g>
        </g>
    </g>
</svg>